# xmcd
#
# Track frame offsets:
#  150
#  14550
#  30593
#  48146
#  60992
#  76574
#  88673
#  99837
#  113140
#  128878
#  150419
#  165304
#  178739
#  198233
#
# Disc length: 2803 seconds
#
# Revision: 0
# Processed by: cddbd v1.5.2PL0 Copyright (c) Steve Scherf et al.
# Submitted via: AltoMP3_Maker 3.0
#
DISCID=960af10e
DTITLE=The Wronglers with Jimmie Dale Gilmore - Heirloom Music
DYEAR=2011
DGENRE=Country
TTITLE0=Time Changes Everything
TTITLE1=Deep Ellum Blues
TTITLE2=I'm Thinking Tonight of My Blue Eyes
TTITLE3=Way Downtown
TTITLE4=Leavin' Home
TTITLE5=Foggy Mountain Top
TTITLE6=Uncle Pen
TTITLE7=I Wonder Where You Are Tonight?
TTITLE8=Columbus Stockade Blues
TTITLE9=In the Pines
TTITLE10=Footprints in the Snow
TTITLE11=Brown's Ferry Blues
TTITLE12=If I Should Wander Back
TTITLE13=Big Rock Candy Mountain
EXTD=
EXTT0=
EXTT1=
EXTT2=
EXTT3=
EXTT4=
EXTT5=
EXTT6=
EXTT7=
EXTT8=
EXTT9=
EXTT10=
EXTT11=
EXTT12=
EXTT13=
PLAYORDER=
